<svg width="36" height="35" xmlns="http://www.w3.org/2000/svg" style="vector-effect: non-scaling-stroke;" stroke="null">
 <!-- Generator: Sketch 49.3 (51167) - http://www.bohemiancoding.com/sketch -->
 <title style="vector-effect: non-scaling-stroke;" stroke="null">Star</title>
 <desc style="vector-effect: non-scaling-stroke;" stroke="null">Created with Sketch.</desc>

 <g stroke="null">
  <title stroke="null">Layer 1</title>
  <g transform="translate(-38.053836822509766,-1.5436300039291382) " stroke="null" fill-rule="evenodd" fill="none" id="Symbols">
   <g stroke="#303030" stroke-width="2" fill="#FFFFFF" id="Profile-nav">
    <g stroke="null" id="Group-2">
     <polygon stroke="null" points="18.08230447024107,27.628475680947304 8.677740566432476,32.75308658182621 10.473852626979351,21.898985400795937 2.865399830043316,14.212067142128944 13.380022518336773,12.628475680947304 18.08230447024107,2.75308658182621 22.784586422145367,12.628475680947304 33.29920815676451,14.212067142128944 25.69075631350279,21.898985400795937 27.486868374049664,32.75308658182621 " id="Star"/>
    </g>
   </g>
  </g>
  <path stroke="#000" id="svg_1" d="m22.88764,12.2191" opacity="NaN" fill="#fff"/>
  <path stroke="#ffffff" id="svg_3" d="m18.12346,27.95267" opacity="NaN" fill-opacity="null" stroke-opacity="null" stroke-dasharray="null" stroke-width="null" fill="#fff"/>
  <path style="vector-effect: non-scaling-stroke;" stroke="null" id="svg_7" d="m55.40738,26.96501l-9.39918,4.5576l1.72839,-10.28806l-7.32509,-7.65431l9.87653,-1.56379l5.10288,-9.87653l0.01647,24.82509z" opacity="undefined" stroke-dasharray="null" stroke-width="null" fill="#ffbf00"/>
  <path stroke="null" style="vector-effect: non-scaling-stroke;" id="svg_8" d="m-39.25512,11.12969l11.1604,0l3.44865,-9.99716l3.44865,9.99716l11.16039,0l-9.02893,6.17851l3.44883,9.99716l-9.02894,-6.17868l-9.02894,6.17868l3.44883,-9.99716l-9.02894,-6.17851z" opacity="undefined" fill-opacity="null" stroke-opacity="null" stroke-dasharray="null" stroke-width="null" fill="#ffbf00"/>
  <path stroke="null" id="svg_9" d="m18.20836,27.69194l-9.56411,5.10178l1.85839,-10.89708l-7.63268,-7.66098l10.553,-1.71712l4.77872,-9.90643l0.00667,25.07982z" opacity="undefined" stroke-opacity="null" stroke-dasharray="null" stroke-width="null" fill="#f8e71c"/>
  <path stroke="null" id="svg_10" d="m18.14124,27.69194l9.51881,5.10178l-1.84959,-10.89707l7.59653,-7.66098l-10.50302,-1.71711l-4.75608,-9.90644l-0.00664,25.07982z" opacity="undefined" stroke-opacity="null" stroke-dasharray="null" stroke-width="null" fill="#e5e5e5"/>
 </g>
</svg>